<svg width="10" height="6" viewBox="0 0 10 6" fill="none" xmlns="http://www.w3.org/2000/svg">
  <path d="M7.13726 5.75C8.34889 5.75 8.95471 5.75 9.23523 5.51041C9.47864 5.30251 9.60782 4.99066 9.5827 4.67154C9.55376 4.30376 9.12538 3.87538 8.26863 3.01863L6.13137 0.881369C5.73535 0.485349 5.53735 0.287349 5.30902 0.213156C5.10817 0.147899 4.89183 0.147899 4.69098 0.213156C4.46265 0.287349 4.26465 0.485349 3.86863 0.881369L1.73137 3.01863C0.874618 3.87538 0.446241 4.30376 0.417296 4.67154C0.392181 4.99066 0.521356 5.30251 0.764766 5.51041C1.04529 5.75 1.65111 5.75 2.86274 5.75H7.13726Z" fill="#15272D" fill-opacity="0.62"/>
</svg>
