<svg width="36" height="37" viewBox="0 0 36 37" fill="none" xmlns="http://www.w3.org/2000/svg">
<mask id="path-1-inside-1_1_45" fill="white">
<path d="M0 16.25C0 7.41344 7.16344 0.25 16 0.25H20C28.8366 0.25 36 7.41344 36 16.25V20.25C36 29.0866 28.8366 36.25 20 36.25H16C7.16344 36.25 0 29.0866 0 20.25V16.25Z"/>
</mask>
<path d="M0 16.25C0 7.41344 7.16344 0.25 16 0.25H20C28.8366 0.25 36 7.41344 36 16.25V20.25C36 29.0866 28.8366 36.25 20 36.25H16C7.16344 36.25 0 29.0866 0 20.25V16.25Z" fill="#FCFDFD"/>
<path d="M16 0.25V1.75H20V0.25V-1.25H16V0.25ZM36 16.25H34.5V20.25H36H37.5V16.25H36ZM20 36.25V34.75H16V36.25V37.75H20V36.25ZM0 20.25H1.5V16.25H0H-1.5V20.25H0ZM16 36.25V34.75C7.99187 34.75 1.5 28.2581 1.5 20.25H0H-1.5C-1.5 29.915 6.33502 37.75 16 37.75V36.25ZM36 20.25H34.5C34.5 28.2581 28.0081 34.75 20 34.75V36.25V37.75C29.665 37.75 37.5 29.915 37.5 20.25H36ZM20 0.25V1.75C28.0081 1.75 34.5 8.24187 34.5 16.25H36H37.5C37.5 6.58502 29.665 -1.25 20 -1.25V0.25ZM16 0.25V-1.25C6.33502 -1.25 -1.5 6.58502 -1.5 16.25H0H1.5C1.5 8.24187 7.99187 1.75 16 1.75V0.25Z" fill="#49656E" fill-opacity="0.2" mask="url(#path-1-inside-1_1_45)"/>
<path fill-rule="evenodd" clip-rule="evenodd" d="M11 16.25C9.89543 16.25 9 17.1454 9 18.25C9 19.3546 9.89543 20.25 11 20.25C12.1046 20.25 13 19.3546 13 18.25C13 17.1454 12.1046 16.25 11 16.25ZM16 18.25C16 17.1454 16.8954 16.25 18 16.25C19.1046 16.25 20 17.1454 20 18.25C20 19.3546 19.1046 20.25 18 20.25C16.8954 20.25 16 19.3546 16 18.25ZM23 18.25C23 17.1454 23.8954 16.25 25 16.25C26.1046 16.25 27 17.1454 27 18.25C27 19.3546 26.1046 20.25 25 20.25C23.8954 20.25 23 19.3546 23 18.25Z" fill="#1B2528"/>
</svg>
